<?xml version="1.0" encoding="UTF-8" standalone="no"?>
<!-- Created with Inkscape (http://www.inkscape.org/) -->

<svg xmlns:dc="http://purl.org/dc/elements/1.1/" xmlns:cc="http://creativecommons.org/ns#" xmlns:rdf="http://www.w3.org/1999/02/22-rdf-syntax-ns#" xmlns:svg="http://www.w3.org/2000/svg" xmlns="http://www.w3.org/2000/svg" xmlns:sodipodi="http://sodipodi.sourceforge.net/DTD/sodipodi-0.dtd" xmlns:inkscape="http://www.inkscape.org/namespaces/inkscape" version="1.1" id="70-logo" xml:space="preserve" width="157.45067" height="124.20533" viewBox="0 0 157.45067 124.20533" sodipodi:docname="70.svg" inkscape:version="0.92.4 (5da689c313, 2019-01-14)">
  <metadata id="metadata8">
    <rdf:RDF>
      <cc:Work rdf:about="">
        <dc:format>image/svg+xml</dc:format>
        <dc:type rdf:resource="http://purl.org/dc/dcmitype/StillImage" />
        <dc:title></dc:title>
      </cc:Work>
    </rdf:RDF>
  </metadata>
  <defs id="defs6">
    <clipPath clipPathUnits="userSpaceOnUse" id="clipPath18">
      <path d="M 0,841.89 H 595.28 V 0 H 0 Z" id="path16" inkscape:connector-curvature="0" />
    </clipPath>
  </defs>
  <sodipodi:namedview pagecolor="#ffffff" bordercolor="#666666" borderopacity="1" objecttolerance="10" gridtolerance="10" guidetolerance="10" inkscape:pageopacity="0" inkscape:pageshadow="2" inkscape:window-width="1920" inkscape:window-height="1057" id="namedview4" showgrid="false" inkscape:zoom="3.3638598" inkscape:cx="-2.0407634" inkscape:cy="61.604382" inkscape:window-x="-8" inkscape:window-y="-8" inkscape:window-maximized="1" inkscape:current-layer="g10" />
  <g id="g10" inkscape:groupmode="layer" inkscape:label="70r" transform="matrix(1.3333333,0,0,-1.3333333,-278.14706,621.32678)">
    <g id="g12" transform="matrix(0.94973784,0,0,0.94973784,13.452886,21.080856)">
      <g id="g14" clip-path="url(#clipPath18)">
        <g id="g20" transform="translate(308.2803,442.2811)">
          <path d="m 0,0 c 2.487,3.792 4.079,6.218 4.083,6.225 0.117,0.183 0.228,0.372 0.263,0.444 0.992,1.725 1.516,3.683 1.516,5.663 0,6.275 -5.106,11.382 -11.383,11.382 h -82.768 c -6.275,0 -11.381,-5.107 -11.381,-11.382 0,-4.107 2.185,-7.808 5.623,-9.82 l 1.651,-5.715 c 1.037,-3.594 4.373,-6.104 8.111,-6.104 0.237,0 0.476,0.011 0.675,0.029 l 21.527,1.718 -18.246,-26.366 c -1.446,-2.092 -1.873,-4.692 -1.172,-7.133 l 3.145,-10.984 -0.185,-0.321 c -1.521,-2.633 -1.925,-5.701 -1.137,-8.639 0.787,-2.936 2.67,-5.391 5.304,-6.913 1.73,-0.996 3.697,-1.524 5.687,-1.524 2.332,0 4.656,0.739 6.563,2.082 0.624,0.401 2.885,1.83 5.895,3.733 10.057,6.356 16.055,10.148 19.712,12.539 5.817,-6.024 13.956,-9.789 22.971,-9.789 17.624,0 31.964,14.339 31.964,31.965 C 18.418,-16.132 10.862,-5.112 0,0" style="fill:#a7a5a6;fill-opacity:1;fill-rule:nonzero;stroke:none" id="path22" inkscape:connector-curvature="0" />
        </g>
        <g id="g24" transform="translate(322.4756,413.3705)">
          <path d="m 0,0 c 0,-15.322 -12.422,-27.741 -27.742,-27.741 -15.322,0 -27.742,12.419 -27.742,27.741 0,15.323 12.42,27.742 27.742,27.742 C -12.422,27.742 0,15.323 0,0" style="fill:#7b7979;fill-opacity:1;fill-rule:nonzero;stroke:none" id="path26" inkscape:connector-curvature="0" />
        </g>
        <g id="g28" transform="translate(239.5933,377.0648)">
          <path d="m 0,0 c -1.252,0 -2.49,0.333 -3.577,0.96 -1.655,0.955 -2.84,2.499 -3.336,4.347 -0.495,1.847 -0.241,3.778 0.716,5.433 l 1.081,1.872 c -1.166,4.079 -2.388,8.347 -3.639,12.709 -0.349,1.216 -0.134,2.526 0.586,3.568 L 15.142,62.575 -15.26,60.147 c -0.113,-0.01 -0.226,-0.014 -0.338,-0.014 -1.866,0 -3.53,1.233 -4.055,3.052 l -2.183,7.562 c -2.856,0.94 -4.924,3.634 -4.924,6.801 0,3.947 3.211,7.159 7.158,7.159 h 82.769 c 3.947,0 7.159,-3.212 7.159,-7.159 0,-1.248 -0.329,-2.472 -0.953,-3.557 -0.048,-0.091 -0.099,-0.179 -0.155,-0.265 -0.027,-0.045 -0.057,-0.092 -0.09,-0.138 L 34.913,21.438 C 34.287,20.384 33.504,19.89 10.192,5.154 7.031,3.156 4.687,1.674 4.194,1.355 2.982,0.481 1.5,0 0,0" style="fill:#ffffff;fill-opacity:1;fill-rule:nonzero;stroke:none" id="path30" inkscape:connector-curvature="0" />
        </g>
        <g id="g32" transform="translate(305.2363,453.0355)">
          <path d="m 0,0 -0.006,0.001 c 0.291,0.456 0.466,0.995 0.466,1.576 0,1.622 -1.315,2.937 -2.937,2.937 h -82.768 c -1.621,0 -2.936,-1.315 -2.936,-2.937 0,-1.622 1.315,-2.936 2.936,-2.936 h 55.157 l -38.096,-65.984 c -0.81,-1.404 -0.329,-3.2 1.076,-4.011 1.053,-0.608 2.326,-0.49 3.239,0.201 0.305,0.229 29.344,18.493 29.546,18.843 l 34.28,52.244 0.003,0.004 z" style="fill:#ed1c24;fill-opacity:1;fill-rule:nonzero;stroke:none" id="path34" inkscape:connector-curvature="0" />
        </g>
        <g id="g36" transform="translate(271.0103,448.496)">
          <path d="m 0,0 c 0.001,0.021 0.012,0.04 0.012,0.061 0,0.044 -0.02,0.083 -0.025,0.126 -0.009,0.074 -0.019,0.144 -0.043,0.214 -0.023,0.065 -0.054,0.121 -0.088,0.179 -0.033,0.058 -0.065,0.112 -0.109,0.163 -0.05,0.057 -0.107,0.102 -0.168,0.148 -0.034,0.025 -0.056,0.06 -0.094,0.082 -0.018,0.011 -0.039,0.01 -0.058,0.02 -0.062,0.031 -0.128,0.048 -0.196,0.067 -0.073,0.02 -0.143,0.04 -0.216,0.044 -0.02,0 -0.036,0.011 -0.057,0.011 h -48.882 c -0.583,0 -1.054,-0.471 -1.054,-1.054 0,-0.582 0.471,-1.054 1.054,-1.054 l 49.02,1.175 -33.951,-56.137 c -0.291,-0.503 -0.118,-1.148 0.386,-1.438 0.166,-0.097 0.347,-0.143 0.526,-0.143 0.364,0 0.718,0.19 0.914,0.528 l 32.9,56.542 c 0.011,0.019 0.011,0.041 0.021,0.06 0.031,0.062 0.047,0.129 0.066,0.198 C -0.023,-0.138 -0.004,-0.071 0,0" style="fill:#918f90;fill-opacity:1;fill-rule:nonzero;stroke:none" id="path38" inkscape:connector-curvature="0" />
        </g>
        <g id="g40" transform="translate(266.9814,446.2797)">
          <path d="M 0,0 C 0,0.021 0.01,0.039 0.01,0.06 0.008,0.103 -0.013,0.139 -0.02,0.18 -0.032,0.251 -0.044,0.319 -0.071,0.386 -0.095,0.448 -0.128,0.501 -0.164,0.556 -0.198,0.61 -0.232,0.662 -0.277,0.709 -0.328,0.763 -0.385,0.804 -0.446,0.845 -0.48,0.869 -0.503,0.902 -0.541,0.921 -0.559,0.931 -0.579,0.93 -0.598,0.938 -0.66,0.966 -0.724,0.98 -0.792,0.996 c -0.071,0.016 -0.141,0.032 -0.212,0.033 -0.019,0 -0.036,0.01 -0.056,0.009 l -43.734,-1.693 c -0.568,-0.023 -1.008,-0.499 -0.985,-1.063 0.024,-0.564 0.502,-1.002 1.07,-0.978 L -0.888,0.14 -32.135,-47.983 c -0.263,-0.5 -0.069,-1.118 0.434,-1.378 0.165,-0.087 0.344,-0.123 0.518,-0.117 0.355,0.015 0.692,0.212 0.869,0.547 l 30.208,48.474 c 0.009,0.02 0.008,0.04 0.017,0.06 0.027,0.061 0.041,0.126 0.057,0.193 C -0.017,-0.135 -0.001,-0.069 0,0" style="fill:#918f90;fill-opacity:1;fill-rule:nonzero;stroke:none" id="path42" inkscape:connector-curvature="0" />
        </g>
        <g id="g44" transform="translate(322.4756,413.3705)">
          <path d="m 0,0 c 0,-15.322 -12.422,-27.741 -27.742,-27.741 -15.322,0 -27.742,12.419 -27.742,27.741 0,15.323 12.42,27.742 27.742,27.742 C -12.422,27.742 0,15.323 0,0" style="fill:#ffffff;fill-opacity:1;fill-rule:nonzero;stroke:none" id="path46" inkscape:connector-curvature="0" />
        </g>
        <g id="g48" transform="translate(282.8691,431.8011)">
          <path d="m 0,0 c -3.02,-1.954 -5.535,-4.636 -7.282,-7.771 -1.81,-3.241 -2.764,-6.93 -2.764,-10.654 0,-5.675 2.234,-11.081 6.282,-15.221 2.043,-2.09 4.424,-3.738 7.082,-4.896 2.733,-1.191 5.614,-1.796 8.549,-1.796 3.492,0 6.834,0.804 9.933,2.371 2.95,1.518 5.568,3.711 7.572,6.363 l 1.324,1.754 H 1.641 V 1.057 Z" style="fill:#918f90;fill-opacity:1;fill-rule:nonzero;stroke:none" id="path50" inkscape:connector-curvature="0" />
        </g>
        <g id="g52" transform="translate(283.4473,400.8597)">
          <path d="m 0,0 v 30.014 c -5.753,-3.703 -9.557,-10.159 -9.557,-17.497 0,-11.533 9.736,-20.821 20.846,-20.821 6.807,0 12.852,3.257 16.659,8.304 z" style="fill:#535cb3;fill-opacity:1;fill-rule:nonzero;stroke:none" id="path54" inkscape:connector-curvature="0" />
        </g>
        <g id="g56" transform="translate(289.2944,434.599)">
          <path d="m 0,0 -0.808,-0.202 v -27.11 H 8.34 v 7.708 h 10.3 v -7.708 h 7.872 l 0.203,0.833 c 0.417,1.703 0.634,3.473 0.634,5.256 0,3.084 -0.625,6.059 -1.861,8.857 -1.191,2.697 -2.895,5.09 -5.053,7.116 l -1.795,1.681 v -6.633 H 8.34 V 0.515 L 7.36,0.604 C 6.723,0.654 6.079,0.68 5.442,0.68 3.598,0.68 1.763,0.454 0,0" style="fill:#918f90;fill-opacity:1;fill-rule:nonzero;stroke:none" id="path58" inkscape:connector-curvature="0" />
        </g>
        <g id="g60" transform="translate(309.0078,428.5463)">
          <path d="m 0,0 v -5.249 h -12.445 v 10.82 c -0.6,0.048 -1.214,0.071 -1.826,0.071 -1.792,0 -3.528,-0.223 -5.19,-0.646 v -25.164 h 7.016 v 7.716 H 0 v -7.716 h 5.964 c 0.396,1.604 0.604,3.272 0.604,4.998 C 6.568,-9.189 4.044,-3.798 0,0" style="fill:#fcd205;fill-opacity:1;fill-rule:nonzero;stroke:none" id="path62" inkscape:connector-curvature="0" />
        </g>
      </g>
    </g>
  </g>
</svg>